<svg xmlns="http://www.w3.org/2000/svg" viewBox="0 0 200 200">
    <g>
        <path d="M181.57 136.264l-23.605-40.857-23.679-41.006a1.394 1.394 0 0 0-2.412 0l-8.249 14.291-22.431-38.846a1.385 1.385 0 0 0-1.202-.696c-.496 0-.957.262-1.211.696l-22.43 38.83-8.24-14.275a1.396 1.396 0 0 0-2.413 0L42.001 95.407l-23.669 41.001a1.428 1.428 0 0 0 0 1.396 1.4 1.4 0 0 0 1.211.696H180.45a1.398 1.398 0 0 0 1.12-2.236zm-83.905-25.111H55.038L76.352 74.24l21.313 36.913zm25.962-36.891l21.327 36.891h-42.637l8.298-14.355 13.012-22.536zM99.992 33.323l22.026 38.153-13.813 23.93-8.216 14.214-22.031-38.16 22.034-38.137zM44.414 96.798l22.495-38.915 7.837 13.573-23.33 40.398a1.362 1.362 0 0 0 0 1.387c.253.434.713.7 1.211.7h44.865l-12.585 21.772H21.945l22.469-38.915zm43.707 38.915L99.99 115.18l11.854 20.532H88.121zm26.928 0l-12.568-21.772h44.886c.776 0 1.4-.624 1.4-1.396 0-.316-.108-.605-.289-.845l-23.244-40.221 7.85-13.596 22.468 38.915 22.477 38.914h-62.98z"/>
    </g>
</svg>
